<svg height="480pt" viewBox="0 0 480 480" width="480pt" xmlns="http://www.w3.org/2000/svg"><path d="m37.367188 116 13.847656 8c4.304687-7.40625 12.21875-11.976562 20.785156-12v-16c-14.277344.042969-27.460938 7.65625-34.632812 20zm0 0"/><path d="m474.871094 376.527344-58.175782-22.398438-7.582031-58.128906h14.886719v-16h-16.976562l-6.222657-48h15.199219v-16h-17.320312l-1.878907-14.496094 22.910157-7.632812c1.054687.675781 2.253906 1.09375 3.496093 1.222656.265625.015625.535157.015625.800781 0 2.289063.003906 4.464844-.976562 5.984376-2.6875l28.800781-32.496094c.109375 0 .222656.050782.34375.050782 3.796875-.003907 7.070312-2.679688 7.832031-6.402344l8.695312-42.503906c1.117188-.566407 2.082032-1.386719 2.816407-2.398438 1.503906-2.085938 1.914062-4.761719 1.105469-7.199219l-13.714844-41.144531c2.125-3.316406 1.519531-7.683594-1.421875-10.296875l-32.449219-28.792969c.175781-3.9375-2.539062-7.414062-6.398438-8.199218l-42.496093-8.695313c-.566407-1.117187-1.390625-2.082031-2.402344-2.816406-2.082031-1.5039065-4.761719-1.914063-7.199219-1.105469l-41.191406 13.722656c-1.058594-.679687-2.257812-1.101562-3.503906-1.234375-2.558594-.257812-5.085938.730469-6.792969 2.65625l-28.792969 32.449219c-3.941406-.199219-7.433594 2.527344-8.199218 6.398438l-8.695313 42.503906c-1.117187.566406-2.082031 1.390625-2.816406 2.402344-1.503907 2.082031-1.914063 4.761718-1.105469 7.199218l13.722656 41.160156c-2.125 3.3125-1.519531 7.679688 1.421875 10.296876l32.449219 28.816406c-.175781 3.933594 2.539062 7.414062 6.398438 8.199218l28.90625 5.910157-1.976563 15.113281h-17.328125v13.785156l-93.023438-37.21875c-1.914062-.75-4.039062-.75-5.953124 0l-93.023438 37.21875v-93.785156c0-39.765625-32.234375-72-72-72s-72 32.234375-72 72v336c0 4.417969 3.582031 8 8 8h440c4.417969 0 8-3.582031 8-8v-53.601562l13.128906 5.058593c.914063.351563 1.890625.535157 2.871094.542969 4.417969 0 8-3.582031 8-8v-32c.003906-3.3125-2.035156-6.285156-5.128906-7.472656zm-90.246094-144.527344 6.261719 48h-8.886719l-14.617188-35.082031c-.359374-.769531-.839843-1.480469-1.421874-2.101563l1.414062-10.816406zm-15.199219-16 1.300781-10.023438c.195313.167969.351563.359376.5625.511719 1.367188.992188 3.019532 1.523438 4.710938 1.511719.859375 0 1.710938-.140625 2.527344-.410156l2.792968-.933594 1.222657 9.34375zm23.511719 80 1.957031 15.054688-6.230469-15.054688zm1.703125-110.65625-5.601563-42.617188 21.609376 37.273438zm30.695313-11.824219-16.070313-27.839843-6.851563-11.863282c1.1875-1.050781 2.3125-2.175781 3.363282-3.359375l38.222656 22.054688zm28.152343-34-39.648437-22.886719c.546875-1.515624 1-3.0625 1.359375-4.632812h44zm7.414063-43.519531h-45.703125c-.335938-1.570312-.765625-3.117188-1.289063-4.632812l38.089844-22.015626zm-15.375-41.375-39.710938 22.917969c-1.050781-1.1875-2.171875-2.308594-3.359375-3.359375l5.382813-9.328125 16.671875-28.855469zm-61.527344-33.785156 27.519531 5.597656-22.886719 39.648438c-1.515624-.519532-3.0625-.949219-4.632812-1.285157zm-8 59.160156c4.199219.027344 8.316406 1.175781 11.921875 3.328125 3.617187 2.097656 6.628906 5.105469 8.726563 8.726563 4.4375 7.328124 4.4375 16.515624 0 23.839843-2.101563 3.625-5.113282 6.632813-8.738282 8.738281-.351562.207032-.734375.277344-1.09375.46875l-2.886718-22.175781c-.511719-3.992187-3.910157-6.988281-7.9375-6.988281-4.027344 0-7.425782 2.996094-7.9375 6.988281l-2.886719 22.175781c-.359375-.191406-.742188-.261718-1.097657-.46875-3.621093-2.105468-6.632812-5.113281-8.734374-8.738281-4.4375-7.324219-4.4375-16.511719 0-23.839843 2.101562-3.621094 5.113281-6.632813 8.734374-8.734376 3.609376-2.152343 7.730469-3.296874 11.929688-3.320312zm-8-60.90625v45.707031c-1.570312.335938-3.117188.765625-4.632812 1.285157l-22.015626-38.085938zm-41.375 15.378906 22.917969 39.710938c-1.1875 1.050781-2.308594 2.171875-3.359375 3.359375l-38.183594-22.054688zm-28.152344 34.007813 39.648438 22.886719c-.535156 1.515624-.976563 3.0625-1.320313 4.632812h-44zm-7.375 43.519531h45.703125c.335938 1.566406.765625 3.113281 1.289063 4.632812l-38.089844 22.015626zm15.375 41.375 39.710938-22.917969c1.050781 1.183594 2.171875 2.308594 3.359375 3.359375l-22.054688 38.183594zm34.007813 28.144531 1.992187-3.441406 20.40625-35.351563-5.511718 42.257813zm10.757812 50.480469-.476562 3.6875-9.21875-3.6875zm-335.238281-96c0-30.929688 25.070312-56 56-56s56 25.070312 56 56v8h-112zm0 24h112v48h-112zm0 64h112v12.183594l-10.976562 4.382812c-1.992188.800782-3.582032 2.371094-4.40625 4.351563l-11.28125 27.082031h-85.335938zm0 64h78.664062l-20 48h-58.664062zm0 64h88v48h-88zm0 112v-48h88v48zm216 0h-25.871094l25.871094-43.121094zm-32-20.878906v-43.121094h25.871094zm48 20.878906v-43.121094l25.871094 43.121094zm32-20.878906-25.871094-43.121094h25.871094zm80-67.121094v88h-64v-64h16v-16h-144v16h16v64h-64v-118.304688l30.015625-67.535156 89.984375-37.496094 89.984375 37.496094 30.015625 67.535156zm-16.6875-107.25c-.832031-1.867188-2.34375-3.347656-4.234375-4.132812l-96-40c-1.96875-.816407-4.1875-.816407-6.15625 0l-96 40c-1.890625.785156-3.402344 2.265624-4.234375 4.132812l-29.886719 67.25h-14.800781l34.097656-81.824219 113.902344-45.558593 113.902344 45.558593 34.097656 81.824219h-14.800781zm96.6875 195.25h-64v-76.183594l64 25.597656zm24-59.648438-88-33.847656v-14.855468l88 33.847656zm0 0"/><path d="m184 320h-32c-4.417969 0-8 3.582031-8 8v32c0 4.417969 3.582031 8 8 8h32c4.417969 0 8-3.582031 8-8v-32c0-4.417969-3.582031-8-8-8zm-8 32h-16v-16h16zm0 0"/><path d="m296 320c-4.417969 0-8 3.582031-8 8v32c0 4.417969 3.582031 8 8 8h32c4.417969 0 8-3.582031 8-8v-32c0-4.417969-3.582031-8-8-8zm24 32h-16v-16h16zm0 0"/><path d="m256 264h-32c-4.417969 0-8 3.582031-8 8v32c0 4.417969 3.582031 8 8 8h32c4.417969 0 8-3.582031 8-8v-32c0-4.417969-3.582031-8-8-8zm-8 32h-16v-16h16zm0 0"/><path d="m400 416h16v24h-16zm0 0"/><path d="m32 240h16v16h-16zm0 0"/><path d="m32 176h16v16h-16zm0 0"/><path d="m32 304h16v16h-16zm0 0"/><path d="m32 368h16v16h-16zm0 0"/><path d="m32 432h16v16h-16zm0 0"/></svg>