<svg height="480pt" viewBox="0 0 480 480.0083" width="480pt" xmlns="http://www.w3.org/2000/svg"><path d="m232 176.007812h16v128h-16zm0 0"/><path d="m136 288.007812h16v24h-16zm0 0"/><path d="m328 288.007812h16v16h-16zm0 0"/><path d="m8 280.007812h32v192c0 4.417969 3.582031 8 8 8h384c4.417969 0 8-3.582031 8-8v-192h32c2.382812 0 4.640625-1.0625 6.160156-2.898437 1.519532-1.839844 2.140625-4.257813 1.695313-6.597656l-32-168c-.476563-2.492188-2.105469-4.613281-4.390625-5.710938l-200-96c-2.265625-1.105469-4.921875-1.0625-7.152344.113281l-200 104c-2.152344 1.117188-3.679688 3.148438-4.152344 5.527344l-32 160c-.46875 2.347656.136719 4.785156 1.65625 6.636719 1.519532 1.855469 3.789063 2.929687 6.183594 2.929687zm240 110.121094 42.214844 73.878906h-42.214844zm-16 73.878906h-42.214844l42.214844-73.878906zm64-22.121093-42.214844-73.878907h42.214844zm8-89.878907h-152v-16h176v16zm-77.785156 16-42.214844 73.878907v-73.878907zm165.785156 96v-176h-16v176h-32v-80h-16v80h-16v-96h24c4.417969 0 8-3.582031 8-8v-32c0-4.417968-3.582031-8-8-8h-192c-4.417969 0-8 3.582032-8 8v32c0 4.417969 3.582031 8 8 8h24v96h-16v-80h-16v80h-32v-176h-16v176h-32v-191.296874l23.199219-131.4375 8.800781-4.617188v39.351562h16v-47.726562l32-16.800781v64.527343h16v-72.871093l32-16.800781v217.671874h16v-226.015624l32-16.761719v34.777343h16v-34.777343l32 16.761719v226.015624h16v-217.597656l32 16.796875v72.800781h16v-64.496093l32 16.800781v47.695312h16v-39.351562l8.800781 4.617188 23.199219 131.4375v191.296874zm-344.90625-346.671874 193.050781-100.382813 192.75 92.519531 29.441407 154.535156h-23.625l-22.832032-129.390624c-.429687-2.441407-1.96875-4.546876-4.167968-5.695313l-168-88c-2.324219-1.21875-5.097657-1.21875-7.421876 0l-168 88c-2.199218 1.148437-3.738281 3.253906-4.167968 5.695313l-22.832032 129.390624h-23.53125zm0 0"/><path d="m384 192.007812h-64c-4.417969 0-8 3.582032-8 8v64c0 4.417969 3.582031 8 8 8h64c4.417969 0 8-3.582031 8-8v-64c0-4.417968-3.582031-8-8-8zm-8 32h-16v-16h16zm-32-16v16h-16v-16zm-16 32h16v16h-16zm32 16v-16h16v16zm0 0"/><path d="m160 192.007812h-64c-4.417969 0-8 3.582032-8 8v64c0 4.417969 3.582031 8 8 8h64c4.417969 0 8-3.582031 8-8v-64c0-4.417968-3.582031-8-8-8zm-8 32h-16v-16h16zm-32-16v16h-16v-16zm-16 32h16v16h-16zm32 16v-16h16v16zm0 0"/><path d="m256 112.007812h-32c-4.417969 0-8 3.582032-8 8v32c0 4.417969 3.582031 8 8 8h32c4.417969 0 8-3.582031 8-8v-32c0-4.417968-3.582031-8-8-8zm-8 32h-16v-16h16zm0 0"/></svg>