<svg height="480pt" viewBox="-24 0 480 480" width="480pt" xmlns="http://www.w3.org/2000/svg"><path d="m423.308594 184h-72v-123.199219c12.496094-15.007812 22.8125-31.707031 30.640625-49.601562 1.078125-2.472657.839843-5.320313-.640625-7.578125-1.476563-2.257813-3.992188-3.621094-6.6875-3.621094h-366.625c-2.699219 0-5.214844 1.363281-6.691406 3.621094-1.476563 2.257812-1.714844 5.105468-.636719 7.578125 7.828125 17.894531 18.144531 34.59375 30.640625 49.601562v179.199219c.027344 22.082031 17.917968 39.972656 40 40 8.683594-.03125 17.117187-2.914062 24-8.207031v24.207031c.027344 22.082031 17.917968 39.972656 40 40h16c0 22.089844 17.90625 40 40 40 22.089844 0 40-17.910156 40-40h192c4.417968 0 8-3.582031 8-8v-136c0-4.417969-3.582032-8-8-8zm-352 80c-13.253906 0-24-10.746094-24-24v-182.152344c-.003906-1.902344-.683594-3.746094-1.921875-5.191406-9.613281-11.234375-17.90625-23.535156-24.71875-36.65625h341.28125c-6.8125 13.121094-15.109375 25.421875-24.722657 36.65625-1.234374 1.445312-1.917968 3.289062-1.917968 5.191406v182.152344c0 13.253906-10.746094 24-24 24s-24-10.746094-24-24v-132.441406c.007812-2.765625-1.417969-5.339844-3.761719-6.804688-2.347656-1.464844-5.285156-1.613281-7.765625-.394531-16.96875 8.34375-35.082031 14.113281-53.746094 17.121094-3.875.625-6.726562 3.96875-6.726562 7.894531v34.625h-48v-34.609375c0-3.925781-2.851563-7.269531-6.730469-7.894531-18.664063-3.007813-36.777344-8.777344-53.742187-17.121094-2.484376-1.21875-5.417969-1.070312-7.765626.394531-2.347656 1.464844-3.769531 4.039063-3.761718 6.804688v132.425781c0 13.253906-10.746094 24-24 24zm200-93.296875-34.800782-39.765625c11.898438-2.613281 23.546876-6.273438 34.800782-10.9375zm-120-10.703125h-16c-8.683594.03125-17.117188 2.914062-24 8.207031v-48.207031c12.890625 5.378906 26.289062 9.4375 40 12.113281zm-16 160c-13.253906 0-24-10.746094-24-24v-96c0-13.253906 10.746094-24 24-24h72c4.417968 0 8 3.582031 8 8v16h-64v16h64v24h-64v16h64v24h-64v16h64v16c0 4.417969-3.582032 8-8 8zm56 40c-13.253906 0-24-10.746094-24-24h48c0 13.253906-10.746094 24-24 24zm224-40h-184v-170.703125l40 45.710937v44.992188c0 22.089844 17.90625 40 40 40 22.089844 0 40-17.910156 40-40v-40h64zm0 0"/><path d="m223.308594 448v-1.351562c0-5.800782-1.578125-11.492188-4.5625-16.464844l-20.582032-34.304688c-1.550781-2.261718-4.113281-3.613281-6.855468-3.613281-2.742188 0-5.308594 1.351563-6.855469 3.613281l-20.585937 34.296875c-2.984376 4.976563-4.5625 10.667969-4.558594 16.472657v1.351562c0 17.671875 14.328125 32 32 32s32-14.328125 32-32zm-48 0v-1.351562c0-2.898438.789062-5.746094 2.277344-8.234376l13.722656-22.863281 13.71875 22.847657c1.496094 2.492187 2.285156 5.34375 2.28125 8.25v1.351562c0 8.835938-7.164063 16-16 16-8.835938 0-16-7.164062-16-16zm0 0"/></svg>