<svg height="480pt" viewBox="0 -72 480.00324 480" width="480pt" xmlns="http://www.w3.org/2000/svg"><path d="m15.203125 59.121094-15.042969 75.277344c-.882812 4.332031 1.910156 8.558593 6.242188 9.441406l29.039062 5.816406c9.269532 1.855469 18.882813-.488281 26.257813-6.398438l20.101562-16.082031 14.199219 113.320313v87.503906c0 4.417969 3.582031 8 8 8h32c3.867188 0 7.183594-2.765625 7.875-6.566406l14.800781-81.433594h90c16.714844 0 33.113281-4.542969 47.445313-13.144531 11.84375-7.105469 25.398437-10.855469 39.207031-10.855469h24c5.402344 6.996094 12.054687 12.929688 19.617187 17.503906l43.839844 26.304688-14.558594 58.246094c-.601562 2.394531-.0625 4.929687 1.457032 6.875 1.519531 1.941406 3.851562 3.074218 6.316406 3.070312h32c3.609375 0 6.773438-2.414062 7.722656-5.894531l24-88c.863282-3.167969-.296875-6.539063-2.921875-8.503907l-25.597656-19.203124c-2.015625-1.507813-3.203125-3.878907-3.203125-6.398438v-88c-.015625-5.386719-.636719-10.753906-1.855469-16h9.855469c4.421875 0 8 3.582031 8 8v96h16v-96c0-13.253906-10.742188-24-24-24h-15.597656c-12.140625-24.46875-37.082032-39.960938-64.402344-40h-115.628906c-12.3125.015625-24.492188-2.570312-35.738282-7.585938l-34.765624-15.453124c-13.292969-5.925782-27.683594-8.980469-42.234376-8.960938h-88.320312l-13.65625-13.65625c-2.285156-2.2851562-5.726562-2.972656-8.714844-1.734375-2.988281 1.238281-4.9375 4.15625-4.941406 7.390625v8h-4.6875l-13.65625-13.65625c-2.285156-2.2851562-5.726562-2.972656-8.714844-1.734375-2.988281 1.238281-4.93749975 4.15625-4.941406 7.390625v24c.0234375 11.0625 5.777344 21.324219 15.203125 27.121094zm168.152344-19.539063 34.765625 15.457031c13.296875 5.929688 27.691406 8.980469 42.25 8.960938h115.628906c30.914062.035156 55.964844 25.085938 56 56v88c.019531 7.550781 3.574219 14.65625 9.601562 19.199219l21.25 15.945312-20.960937 76.855469h-15.640625l13.511719-54.054688c.855469-3.417968-.621094-6.988281-3.640625-8.800781l-48.917969-29.359375c-16.828125-10.15625-27.136719-28.351562-27.203125-48v-27.785156h-16v27.769531c.03125 9.710938 2.035156 19.316407 5.890625 28.230469h-14.5625c-16.714844 0-33.113281 4.542969-47.445313 13.144531-11.84375 7.105469-25.398437 10.855469-39.207031 10.855469h-88.675781v-32h-16v39.28125l-14.671875 80.71875h-17.328125v-80c.003906-.332031-.015625-.664062-.0625-.992188l-16-128c-.359375-2.875-2.242188-5.332031-4.925781-6.421874-2.683594-1.089844-5.746094-.644532-8.011719 1.164062l-31.261719 25.019531c-3.695312 2.9375-8.496093 4.109375-13.128906 3.199219l-21.191406-4.242188 13.144531-65.726562h73.4375c4.421875 0 8-3.582031 8-8v-8c-.03125-5.632812-1.566406-11.15625-4.445312-16h40.078124c12.3125-.015625 24.492188 2.570312 35.738282 7.582031zm-135.355469-12.269531 2.347656 2.34375c1.5 1.5 3.53125 2.34375 5.652344 2.34375h24c8.839844 0 16 7.164062 16 16h-32c-8.835938 0-16-7.164062-16-16zm-32 0 2.347656 2.34375c1.5 1.5 3.53125 2.34375 5.652344 2.34375h8c.035156 5.632812 1.570312 11.15625 4.449219 16h-4.449219c-8.835938 0-16-7.164062-16-16zm0 0"/></svg>